<svg width="800" height="800" viewBox="0 0 800 800" fill="none" xmlns="http://www.w3.org/2000/svg">
<g clip-path="url(#clip0_62_1470)">
<path d="M597.925 304.574L670.8 288.119L542.682 547.88L493.315 519.671C552.529 396.654 538.712 427.591 597.925 304.574Z" fill="#4451D4"/>
<path d="M663.747 167.053L735.446 151.773L693.132 237.577L621.433 255.207L663.747 167.053Z" fill="#4451D4"/>
<path d="M663.747 167.053L543.857 272.838L172.433 359.817L86.6292 302.223L663.747 167.053Z" fill="#E58A57"/>
<path d="M663.747 167.053L543.857 272.838L452.177 425.639L520.349 465.603L663.747 167.053Z" fill="#E58A57"/>
<path d="M277.043 379.799L347.567 362.169L520.349 465.603L493.315 519.671L277.043 379.799Z" fill="#4451D4"/>
<path d="M543.857 272.839L513.297 323.381L277.043 379.799L172.433 359.818L543.857 272.839Z" fill="#757FDE"/>
<path d="M86.6293 403.307L164.205 375.098L527.402 611.914L548.559 705.946L86.6293 403.307Z" fill="#BCC0E6"/>
<path d="M523.875 586.668L542.682 547.88L277.043 379.799L172.433 359.817L523.875 586.668Z" fill="#757FDE"/>
<path d="M721.342 311.626L666.098 319.854L527.403 611.913L548.56 705.945L721.342 311.626Z" fill="#BCC0E6"/>
</g>
<defs>
<clipPath id="clip0_62_1470">
<rect width="800" height="800" rx="10" fill="white"/>
</clipPath>
</defs>
</svg>
